<?xml version="1.0" encoding="iso-8859-1"?>
<!-- Generator: Adobe Illustrator 19.0.0, SVG Export Plug-In . SVG Version: 6.00 Build 0)  -->
<svg version="1.1" id="Capa_1" xmlns="http://www.w3.org/2000/svg" xmlns:xlink="http://www.w3.org/1999/xlink" x="0px" y="0px"
	 viewBox="0 0 512 512" style="enable-background:new 0 0 512 512;" xml:space="preserve">
<g>
	<g>
		<path d="M405.085,116.012c7.26-8.56,12.39-18.809,14.92-30.079c4.13-18.359,0.85-37.239-9.22-53.138
			c-10.07-15.9-25.729-26.929-44.099-31.059c-18.359-4.12-37.239-0.85-53.138,9.22c-4.83,3.06-19.539,12.37-47.719,65.368
			c-3.56,6.7-6.88,13.22-9.83,19.199c-2.95-5.98-6.27-12.5-9.83-19.199c-28.179-52.998-42.889-62.308-47.719-65.368
			c-32.829-20.789-76.448-10.99-97.237,21.839c-7.39,11.67-10.91,24.699-10.91,37.589c0,16.51,5.79,32.779,16.659,45.629H26.007
			v115.996h16.499V512h426.987V232.008h16.499V116.012H405.085z M329.598,36.305c6.55-4.16,13.99-6.3,21.569-6.3
			c2.98,0,5.97,0.33,8.95,1c10.55,2.37,19.539,8.7,25.319,17.839c5.79,9.13,7.67,19.969,5.3,30.519s-8.7,19.539-17.839,25.329
			c-11.97,7.58-53.238,10.85-89.387,11.32h-4.19C295.409,82.613,317.138,44.194,329.598,36.305z M126.564,48.844
			c11.94-18.859,36.989-24.479,55.838-12.54c12.45,7.88,34.179,46.299,50.278,79.708h-4.18c-36.139-0.46-77.408-3.73-89.397-11.32
			C120.244,92.753,114.624,67.694,126.564,48.844z M198.002,482.001H72.506V232.008h125.496V482.001z M198.002,202.009H56.006
			v-55.998h141.996V202.009z M283.999,482.001h-55.998v-335.99h55.998V482.001z M439.494,482.001H313.998V232.008h125.496V482.001z
			 M455.994,202.009H313.998v-55.998h141.996V202.009z"/>
	</g>
</g>
<g>
</g>
<g>
</g>
<g>
</g>
<g>
</g>
<g>
</g>
<g>
</g>
<g>
</g>
<g>
</g>
<g>
</g>
<g>
</g>
<g>
</g>
<g>
</g>
<g>
</g>
<g>
</g>
<g>
</g>
</svg>
