<?xml version="1.0" encoding="iso-8859-1"?>
<!-- Generator: Adobe Illustrator 19.0.0, SVG Export Plug-In . SVG Version: 6.00 Build 0)  -->
<svg version="1.1" id="Capa_1" xmlns="http://www.w3.org/2000/svg" xmlns:xlink="http://www.w3.org/1999/xlink" x="0px" y="0px"
	 viewBox="0 0 511.999 511.999" style="enable-background:new 0 0 511.999 511.999;" xml:space="preserve">
<g>
	<g>
		<g>
			<rect x="213.001" y="187.01" width="0.001" height="29.999"/>
			<rect x="228.001" y="202.01" width="55.998" height="309.989"/>
			<path d="M485.991,116.013h-80.917c7.26-8.565,12.4-18.806,14.93-30.075c4.125-18.366,0.851-37.24-9.221-53.142
				c-10.07-15.903-25.73-26.934-44.097-31.059c-18.364-4.123-37.24-0.85-53.143,9.22c-4.831,3.059-19.532,12.369-47.711,65.366
				c-3.562,6.7-6.877,13.222-9.834,19.203c-2.957-5.983-6.272-12.504-9.834-19.203c-28.178-52.998-42.879-62.307-47.71-65.367
				c-32.831-20.787-76.453-10.99-97.241,21.839c-16.856,26.62-13.6,60.333,5.736,83.217H26.008v85.997h171.994v-55.997v-1.029
				c1.487,0.081,2.995,0.159,4.541,0.231c9.084,0.426,17.787,0.641,25.458,0.737v0.061v55.997l55.998,0v-55.997v-0.061
				c7.671-0.096,16.375-0.311,25.458-0.737c1.546-0.073,3.055-0.15,4.541-0.231v1.029v55.997l171.994,0.001V116.013z
				 M228.707,116.013c-36.187-0.451-77.59-3.715-89.607-11.323c-18.854-11.939-24.48-36.992-12.542-55.846
				c11.94-18.855,36.993-24.481,55.847-12.543c12.441,7.878,34.181,46.306,50.27,79.711H228.707z M390.734,79.364
				c-2.369,10.548-8.704,19.542-17.837,25.326c-12.031,7.619-53.613,10.881-89.874,11.323h-3.704
				c16.08-33.399,37.819-71.824,50.273-79.711c6.559-4.153,13.996-6.293,21.573-6.293c2.976,0,5.974,0.33,8.948,0.998
				c10.548,2.369,19.542,8.704,25.325,17.837C391.221,57.978,393.102,68.817,390.734,79.364z"/>
			<rect x="283.999" y="202.009" width="29.999" height="0.001"/>
		</g>
	</g>
</g>
<g>
	<g>
		<rect x="42.507" y="232.009" width="155.495" height="279.99"/>
	</g>
</g>
<g>
	<g>
		<rect x="313.997" y="232.009" width="155.495" height="279.99"/>
	</g>
</g>
<g>
</g>
<g>
</g>
<g>
</g>
<g>
</g>
<g>
</g>
<g>
</g>
<g>
</g>
<g>
</g>
<g>
</g>
<g>
</g>
<g>
</g>
<g>
</g>
<g>
</g>
<g>
</g>
<g>
</g>
</svg>
